# xmcd CD database file
#
# Track frame offsets:
#	150
#	4198
#	28226
#	46363
#	73079
#	94213
#	116562
#	142394
#	166046
#	187654
#	211811
#	233051
#	236658
#
# Disc length: 3455 seconds
#
# Revision: 5
# Processed by: cddbd v1.5.1PL2 Copyright (c) Steve Scherf et al.
# Submitted via: CDex 1.51
#
DISCID=b00d7d0d
DTITLE=Demons and Wizards - Demons and Wizards
DYEAR=2000
DGENRE=Metal
TTITLE0=Rites of Passage
TTITLE1=Heaven Denies
TTITLE2=Poor Man's Crusade
TTITLE3=Fiddler on the Green
TTITLE4=Blood on My Hands
TTITLE5=Path of Glory
TTITLE6=Winter of Souls
TTITLE7=The Whistler
TTITLE8=Tear Down the Wall
TTITLE9=Gallows Pole
TTITLE10=My Last Sunrise
TTITLE11=Chant
TTITLE12=White Room
EXTD=1999\nreleased in 2000\nDigipack version with bonustrack YEAR: 2000
EXTT0=
EXTT1=
EXTT2=
EXTT3=
EXTT4=
EXTT5=
EXTT6=
EXTT7=
EXTT8=
EXTT9=
EXTT10=
EXTT11=
EXTT12=
PLAYORDER=
